<?xml version="1.0" standalone="no"?>
<!DOCTYPE svg PUBLIC "-//W3C//DTD SVG 20010904//EN"
 "http://www.w3.org/TR/2001/REC-SVG-20010904/DTD/svg10.dtd">
<svg version="1.0" xmlns="http://www.w3.org/2000/svg"
 width="512.000000pt" height="512.000000pt" viewBox="0 0 512.000000 512.000000"
 preserveAspectRatio="xMidYMid meet">
<metadata>
Created by potrace 1.14, written by Peter Selinger 2001-2017
</metadata>
<g transform="translate(0.000000,512.000000) scale(0.100000,-0.100000)"
fill="#000000" stroke="none">
<path d="M0 2560 l0 -2560 533 0 534 0 17 83 c15 71 16 138 14 502 l-3 419
-33 7 c-62 13 -62 26 0 84 51 48 62 53 110 57 58 5 78 -4 78 -34 0 -20 1 -20
27 -2 15 9 51 37 81 61 29 23 61 43 72 43 23 0 69 -54 77 -91 3 -16 9 -29 13
-29 15 0 32 -60 27 -97 -3 -21 -12 -63 -21 -95 -9 -31 -20 -118 -24 -193 l-8
-137 -62 -60 c-58 -56 -65 -60 -100 -55 -20 3 -47 8 -59 12 l-23 7 0 -125 c0
-130 -17 -234 -51 -314 l-18 -43 1969 0 1970 0 0 2560 0 2560 -2560 0 -2560 0
0 -2560z m1179 2423 l0 -58 -76 -65 c-41 -36 -86 -82 -99 -102 -13 -21 -31
-38 -39 -38 -24 0 -20 95 5 135 21 33 186 185 202 185 4 0 8 -26 7 -57z m-838
-132 l22 -18 -20 -29 c-12 -16 -32 -40 -46 -52 -21 -20 -29 -22 -46 -13 -18
10 -21 9 -21 -8 0 -30 15 -34 98 -26 74 7 77 8 132 61 31 30 62 54 67 54 15 0
24 -28 13 -35 -6 -4 -10 -14 -10 -23 0 -12 8 -8 28 16 15 18 36 32 47 32 12 0
26 5 32 11 5 5 30 9 54 7 42 -3 45 -6 73 -56 57 -107 105 -376 92 -517 -13
-141 -56 -232 -167 -350 -111 -117 -165 -145 -282 -145 -54 0 -76 5 -100 22
-77 52 -147 162 -147 230 0 30 11 45 85 119 92 90 100 96 110 79 4 -6 -14 -35
-39 -65 -25 -29 -46 -58 -46 -63 0 -30 57 -126 96 -162 l46 -42 82 4 c116 6
157 30 196 111 44 94 55 185 42 352 -10 137 -29 219 -72 320 -21 49 -37 55
-97 33 l-33 -12 0 -308 c0 -298 1 -308 19 -308 36 0 33 -20 -8 -69 -40 -48
-43 -49 -111 -56 -51 -5 -75 -4 -86 6 -13 11 -10 17 24 53 l40 41 6 195 c3
107 3 244 0 303 l-7 108 -21 -19 c-35 -32 -59 -41 -137 -48 -72 -6 -76 -5
-108 22 -31 26 -33 31 -28 73 5 41 12 53 81 118 81 78 106 87 147 54z m2992
-76 c52 -51 57 -59 57 -98 0 -27 -9 -62 -24 -90 -38 -70 -116 -187 -155 -233
-47 -53 -122 -151 -145 -188 -26 -42 -125 -138 -135 -132 -5 3 -39 -25 -77
-63 -73 -73 -127 -111 -157 -111 -38 0 -79 32 -99 77 l-20 45 -38 -37 c-35
-35 -39 -36 -76 -27 -22 6 -60 13 -86 17 -62 8 -95 35 -103 86 -6 34 2 192 20
377 5 52 5 53 -25 58 -56 12 -54 26 14 93 62 62 65 63 104 56 54 -9 64 -22 51
-69 -6 -20 -9 -72 -7 -114 1 -42 -1 -130 -6 -194 -11 -155 -7 -167 59 -200 83
-41 84 -39 87 235 2 171 0 227 -9 227 -6 0 -15 -4 -18 -10 -9 -15 -37 -12 -33
3 5 20 154 157 170 157 36 0 39 -24 41 -287 2 -225 5 -263 21 -295 9 -20 24
-39 32 -42 17 -7 50 6 83 32 31 25 21 46 -14 30 -14 -6 -28 -8 -31 -5 -13 13
7 38 36 43 l30 7 0 106 c0 58 -7 147 -15 196 -8 50 -15 111 -15 138 0 33 -4
47 -14 47 -7 0 -20 7 -27 16 -12 14 -5 24 50 75 45 42 70 59 90 59 40 0 51
-17 51 -79 0 -31 7 -96 15 -146 8 -49 15 -137 15 -194 l0 -105 36 43 c20 23
58 75 84 114 98 149 110 195 63 238 -62 55 -61 55 -98 19 -29 -28 -37 -31 -50
-20 -8 7 -15 18 -15 25 0 7 38 49 85 94 105 101 117 103 198 26z m699 8 c11
-9 18 -30 18 -50 l0 -34 38 22 c23 13 46 20 56 16 17 -7 69 -108 81 -159 6
-24 2 -30 -49 -63 -83 -53 -82 -53 -82 7 0 29 -8 69 -17 88 -16 34 -17 29 -12
-130 9 -300 15 -359 36 -371 11 -5 17 -14 14 -20 -8 -11 -235 -12 -235 -1 0 5
9 17 20 27 18 16 20 31 20 160 0 78 -3 197 -7 263 l-6 122 -44 0 c-23 0 -43 3
-43 8 1 13 168 129 189 132 3 0 13 -7 23 -17z m418 -62 c0 -32 3 -79 6 -104
l7 -46 51 -3 c47 -3 51 -5 54 -30 3 -26 0 -28 -30 -28 -81 0 -77 9 -72 -184 2
-94 6 -223 9 -286 3 -63 5 -136 5 -162 0 -47 1 -48 50 -73 49 -25 51 -25 75
-8 36 27 30 41 -20 49 -25 3 -45 11 -45 16 0 12 158 6 178 -6 9 -6 1 -21 -30
-54 -69 -77 -69 -77 -146 -52 -87 28 -209 88 -216 105 -2 7 -6 136 -7 287 -3
349 -4 358 -35 358 -26 0 -44 27 -27 39 20 13 126 157 149 204 14 26 29 45 34
42 6 -3 10 -32 10 -64z m-2774 -40 c69 -51 105 -96 111 -137 4 -37 1 -42 -66
-109 -56 -55 -73 -67 -83 -57 -10 10 -10 17 0 32 23 37 14 74 -25 112 -35 32
-73 58 -87 58 -3 0 -6 -44 -6 -97 0 -54 -7 -129 -15 -168 -8 -38 -15 -79 -15
-90 0 -19 58 -75 78 -75 5 0 17 -9 27 -20 35 -39 54 -36 111 21 45 44 55 50
68 39 14 -11 16 0 16 100 0 143 9 159 122 223 46 26 91 47 101 47 52 0 161
-83 170 -130 28 -145 34 -333 13 -393 -19 -52 -36 -69 -102 -101 -89 -44 -118
-40 -200 27 -69 55 -98 99 -107 157 l-3 25 -11 -25 c-16 -35 -122 -137 -158
-150 -36 -14 -68 -6 -110 26 -17 13 -36 24 -42 24 -5 0 -18 9 -29 21 -16 17
-26 20 -61 15 -51 -7 -61 5 -37 42 10 15 21 47 25 72 4 25 12 65 18 90 6 25
10 102 11 171 l0 125 71 77 71 77 52 0 c43 0 61 -6 92 -29z m-505 -113 c57
-32 59 -35 87 -112 32 -87 32 -99 -3 -142 l-23 -29 -88 22 c-49 12 -93 19 -98
16 -5 -4 -7 -62 -3 -139 5 -120 8 -137 29 -163 12 -17 28 -30 34 -30 12 -1 54
113 54 147 0 34 29 24 51 -17 l18 -34 -31 -46 c-55 -82 -67 -91 -118 -91 -43
0 -51 4 -118 68 l-72 67 0 151 c0 238 -1 234 89 304 90 70 109 73 192 28z
m2513 -1 c56 -30 61 -36 87 -102 35 -89 36 -107 0 -147 l-28 -32 -84 21 c-46
11 -88 18 -93 15 -5 -3 -6 -66 -3 -144 5 -127 7 -142 28 -164 12 -13 26 -24
30 -24 9 0 47 95 55 138 8 38 19 37 48 -2 l21 -27 -23 -42 c-12 -23 -36 -57
-53 -74 -25 -28 -37 -33 -75 -33 -43 0 -50 4 -115 67 l-69 66 1 171 c1 94 4
184 8 200 9 41 135 145 176 145 17 0 57 -14 89 -32z m1204 -26 c20 -11 52 -35
71 -54 29 -31 35 -47 47 -119 8 -46 14 -134 14 -195 1 -155 -14 -188 -101
-231 -99 -48 -113 -48 -172 -8 -29 19 -70 53 -92 76 l-40 41 -3 179 c-4 202
-1 211 72 258 59 38 128 72 149 72 10 0 34 -9 55 -19z m-740 -755 c28 -15 62
-64 62 -89 0 -10 10 -22 23 -26 18 -7 26 -4 40 15 11 13 28 29 40 35 16 9 13
3 -11 -27 -39 -46 -40 -63 -7 -98 14 -15 25 -32 25 -39 1 -7 9 -30 20 -52 11
-22 19 -44 20 -49 0 -5 -25 -6 -55 -2 -45 5 -57 3 -62 -9 -4 -13 -8 -12 -21 6
-11 17 -12 24 -4 27 22 7 12 58 -20 106 -18 27 -40 61 -48 76 -9 14 -26 39
-38 55 -30 38 -29 86 2 85 6 -1 21 -6 34 -14z m287 -51 c32 -31 32 -65 0 -99
-23 -25 -56 -33 -89 -20 -22 8 -20 37 4 59 22 20 27 65 8 65 -20 0 14 20 35
20 10 0 29 -11 42 -25z m64 -161 c-16 -32 -63 -50 -103 -40 -37 9 -32 23 12
30 22 3 48 16 62 31 30 32 48 18 29 -21z m-929 8 c44 -7 46 -9 87 -82 113
-198 215 -487 258 -730 9 -52 21 -104 27 -115 6 -11 16 -114 21 -229 8 -182 8
-216 -7 -267 -9 -32 -16 -68 -16 -79 0 -24 3 -24 -67 -1 -32 10 -79 23 -105
29 -26 7 -85 30 -133 52 -47 22 -90 40 -95 40 -6 0 -41 15 -77 33 -62 29 -65
32 -38 35 16 2 41 12 55 21 14 10 45 21 70 25 58 9 134 60 191 126 24 29 70
80 102 113 32 33 55 63 50 68 -13 13 -103 -11 -183 -49 -62 -30 -71 -36 -186
-130 l-102 -82 -6 62 c-3 35 -5 83 -4 108 1 27 -8 64 -21 93 -12 27 -20 54
-18 60 2 7 -2 29 -9 49 -9 26 -11 65 -7 124 6 81 7 85 27 78 44 -15 155 -11
185 7 25 15 30 26 36 79 6 51 4 64 -11 81 -9 10 -27 19 -40 19 -23 0 -25 -5
-39 -96 -6 -37 -10 -43 -37 -48 -52 -10 -62 -7 -87 29 l-23 35 30 28 c41 39
52 94 25 130 -18 23 -28 27 -71 27 -27 -1 -57 -7 -66 -14 -30 -25 -14 -93 33
-135 15 -14 18 -23 11 -37 -6 -10 -10 -32 -10 -49 0 -17 -7 -46 -15 -66 -8
-19 -19 -83 -25 -142 -14 -145 -16 -154 -61 -255 -22 -49 -45 -111 -51 -139
-12 -50 -12 -50 -47 -45 -20 2 -82 10 -138 17 l-101 13 -6 31 c-3 17 -8 58
-11 91 -22 217 -95 554 -164 759 -23 67 -28 92 -20 103 17 20 245 128 329 156
175 58 426 89 560 69z m950 -101 c-12 -24 -50 -36 -85 -27 -39 10 -30 24 21
32 25 3 51 12 57 19 16 18 21 1 7 -24z m-1176 -953 c4 -51 9 -111 12 -134 l6
-40 -64 4 c-34 2 -64 6 -66 7 -1 1 2 13 7 26 5 13 24 70 42 127 18 58 37 102
44 102 9 0 14 -29 19 -92z m-684 -102 c0 -7 -9 -21 -20 -31 -24 -22 -27 -65
-4 -65 8 0 24 5 35 10 16 9 19 7 19 -14 0 -32 -32 -91 -73 -134 -78 -81 -227
-112 -227 -47 0 25 17 35 58 35 46 0 96 32 103 65 4 17 13 44 20 62 7 18 10
35 6 39 -11 12 -64 -16 -77 -42 -17 -31 -28 -30 -36 4 -4 15 -12 30 -18 34 -7
5 -5 12 7 21 14 10 32 11 79 3 59 -10 61 -10 84 17 13 16 24 37 24 48 0 11 5
17 10 14 6 -3 10 -12 10 -19z m-305 -136 c-28 -12 -37 -12 -30 0 3 6 16 10 28
9 21 0 21 -1 2 -9z m102 -56 c-3 -3 -12 -4 -19 -1 -8 3 -5 6 6 6 11 1 17 -2
13 -5z m-107 -43 c0 -13 -26 -32 -33 -24 -8 7 11 33 24 33 5 0 9 -4 9 -9z
m-705 -201 c4 -6 2 -17 -4 -24 -12 -15 -9 -18 48 -50 30 -17 66 -20 265 -27
141 -4 253 -13 287 -21 66 -17 208 -94 216 -117 3 -9 21 -50 41 -91 23 -49 39
-101 45 -150 12 -85 13 -332 2 -558 l-7 -154 27 -28 28 -29 -54 -62 c-57 -66
-119 -102 -157 -92 -35 9 -26 31 17 38 51 8 69 28 47 50 -9 9 -16 27 -16 40 0
12 -6 34 -13 47 l-13 25 -43 -48 c-52 -58 -138 -109 -184 -109 -50 0 -92 44
-106 111 -22 112 -25 281 -6 365 16 76 20 82 83 147 l67 68 100 -3 100 -3 2
85 c5 172 -35 273 -127 320 -29 15 -80 20 -310 29 -369 15 -385 18 -442 69
l-27 25 19 36 c47 92 97 140 115 111z m1456 -106 c-11 -15 -21 -21 -21 -14 0
15 31 52 38 46 2 -3 -5 -17 -17 -32z m-141 -4 c0 -5 -4 -10 -10 -10 -5 0 -10
-4 -10 -9 0 -6 20 -3 46 6 25 8 48 13 51 10 3 -4 9 -27 14 -54 11 -58 -2 -105
-38 -133 -35 -27 -59 -25 -79 6 -16 24 -16 26 6 47 13 12 18 15 12 6 -10 -13
-9 -21 6 -39 39 -48 90 11 77 87 -15 93 -48 81 -43 -15 2 -53 0 -67 -12 -70
-12 -2 -14 9 -12 63 4 66 4 66 -21 60 -32 -9 -44 11 -21 36 19 21 34 25 34 9z
m585 -11 c13 -21 -6 -57 -63 -120 -46 -49 -62 -61 -73 -53 -8 6 -25 11 -38 12
-13 0 -25 2 -26 4 -10 10 -7 110 3 120 14 14 15 11 16 -56 1 -72 24 -72 28 0
4 78 28 87 28 10 0 -47 12 -77 25 -64 9 9 11 53 5 90 -5 25 -3 41 5 48 18 15
25 1 25 -49 l1 -46 19 24 c24 28 27 66 5 57 -18 -7 -20 5 -3 22 15 15 35 15
43 1z m167 -23 c12 -18 -11 -33 -23 -16 -8 11 -9 0 -4 -37 4 -42 3 -53 -9 -53
-10 0 -15 16 -18 61 -1 33 -1 63 1 65 7 7 45 -8 53 -20z m61 -16 c8 0 8 -3 -1
-12 -13 -13 -16 -58 -6 -107 6 -26 10 -30 28 -25 16 5 18 3 10 -5 -6 -7 -22
-9 -37 -6 -23 6 -25 11 -29 83 -2 44 0 85 6 95 10 17 11 16 14 -3 2 -11 8 -20
15 -20z m-552 20 c21 -12 25 -35 8 -45 -6 -4 -16 1 -23 10 -12 16 -14 15 -20
-16 -4 -22 -2 -37 7 -46 19 -19 47 -5 47 23 0 31 37 57 62 43 15 -8 18 -19 16
-56 -4 -60 -27 -77 -61 -45 -21 19 -25 20 -38 7 -13 -13 -19 -14 -40 -3 -21
11 -24 19 -21 58 2 25 11 53 19 62 19 21 19 21 44 8z m-97 -26 c24 -23 20 -44
-9 -44 -20 0 -25 -5 -25 -23 0 -31 10 -39 29 -25 13 9 12 8 -1 -7 -26 -28 -48
-4 -48 51 0 37 13 60 37 64 1 0 9 -7 17 -16z m506 -24 c0 -13 -7 -20 -20 -20
-16 0 -20 -7 -20 -32 1 -31 1 -32 15 -14 16 22 20 10 5 -14 -7 -12 -13 -12
-27 -4 -26 16 -30 92 -6 109 23 17 53 2 53 -25z m238 -37 c-4 -57 -27 -76 -57
-49 -45 41 -9 132 41 105 15 -8 18 -19 16 -56z m68 -244 c41 -41 42 -41 68
-24 22 14 29 15 42 5 13 -12 7 -21 -48 -77 -75 -75 -94 -79 -133 -23 -29 42
-57 49 -63 16 -6 -28 7 -101 21 -120 12 -16 17 -16 72 5 33 12 67 28 76 35 23
21 47 17 75 -11 l26 -26 -7 -152 c-9 -201 -20 -240 -88 -303 -151 -140 -180
-164 -199 -164 -53 0 -208 119 -208 160 0 9 -9 25 -20 35 -11 10 -20 24 -20
31 0 15 170 173 206 192 20 10 33 11 60 2 28 -10 34 -16 34 -40 0 -44 -10 -60
-36 -60 -26 0 -30 10 -13 27 7 7 9 20 5 29 -6 15 -15 10 -56 -31 -28 -27 -50
-57 -50 -66 0 -17 62 -79 101 -99 48 -26 78 -29 101 -11 20 16 23 31 29 137
13 204 12 234 -8 234 -10 0 -50 -17 -90 -37 -69 -35 -73 -36 -91 -20 -14 13
-24 47 -37 130 l-17 112 82 78 c100 94 122 99 186 36z m362 -119 l4 -99 52 -3
c47 -3 51 -5 54 -29 3 -25 0 -27 -48 -31 -28 -3 -52 -7 -54 -9 -2 -2 0 -150 5
-328 6 -219 13 -329 21 -338 6 -8 29 -23 50 -34 l39 -20 30 21 c37 27 31 37
-26 46 -25 3 -45 11 -45 16 0 12 158 6 178 -6 9 -5 -1 -23 -34 -59 -25 -29
-53 -56 -60 -60 -29 -17 -285 86 -298 119 -3 8 -6 137 -7 287 -2 341 -4 357
-34 357 -43 0 -38 20 24 98 34 42 75 103 92 136 40 77 52 64 57 -64z m-1262
-32 c89 -91 88 -110 -6 -203 -52 -52 -73 -66 -81 -58 -12 12 -9 25 13 54 9 13
8 23 -1 45 -15 33 -75 88 -107 98 -21 6 -22 3 -28 -126 -3 -73 -10 -158 -14
-188 -6 -51 -5 -56 18 -75 47 -38 118 -85 128 -85 6 0 33 23 60 52 55 57 82
60 82 9 0 -24 -15 -46 -67 -102 -68 -72 -107 -99 -142 -99 -10 0 -54 23 -96
51 -69 46 -80 51 -115 45 -48 -7 -58 5 -32 42 11 15 22 45 25 67 3 22 10 60
16 85 5 25 10 104 11 175 l0 130 73 78 72 79 64 -4 c63 -4 63 -4 127 -70z
m326 -4 c109 -113 109 -115 109 -316 0 -160 1 -171 20 -175 10 -3 19 -7 19
-10 0 -13 -124 -123 -140 -123 -10 0 -27 12 -38 27 l-19 26 -35 -26 c-37 -29
-79 -35 -96 -14 -5 6 -27 63 -48 124 -43 129 -42 134 33 210 39 40 47 43 95
43 l52 0 -32 -33 c-28 -29 -32 -39 -32 -89 0 -31 4 -59 8 -62 5 -3 15 -30 22
-61 14 -59 23 -67 40 -35 13 25 7 437 -6 450 -5 5 -31 -3 -59 -18 -43 -23 -50
-32 -53 -60 -4 -43 -20 -37 -49 19 -45 88 -45 96 -11 120 36 26 130 79 140 79
4 0 40 -34 80 -76z m-1489 -88 c18 -7 50 -31 72 -52 39 -38 40 -42 58 -154 28
-188 19 -308 -27 -359 -22 -24 -112 -67 -157 -75 -34 -6 -42 -2 -117 58 -52
43 -84 76 -91 97 -6 18 -11 99 -11 188 0 193 3 199 122 265 91 50 103 53 151
32z"/>
<path d="M1978 4474 c-23 -15 -38 -32 -38 -44 0 -19 2 -20 29 -5 28 14 61 51
61 67 0 13 -13 8 -52 -18z"/>
<path d="M1966 4374 l-29 -16 6 -176 c8 -215 25 -254 87 -204 21 17 23 29 27
138 5 151 -13 268 -42 271 -11 2 -33 -5 -49 -13z"/>
<path d="M1055 4538 c-2 -7 -6 -47 -7 -88 l-3 -75 50 -6 c28 -3 52 -5 54 -3 3
3 -13 45 -49 129 -4 11 -11 28 -14 38 -6 20 -25 23 -31 5z"/>
<path d="M3575 4538 c-3 -7 -6 -47 -7 -88 l-3 -75 48 -5 c26 -4 49 -5 51 -3 6
6 -68 183 -76 183 -5 0 -11 -6 -13 -12z"/>
<path d="M4800 4478 c-59 -41 -70 -84 -13 -55 28 15 62 62 51 72 -3 3 -20 -5
-38 -17z"/>
<path d="M4776 4374 l-28 -16 6 -101 c3 -56 9 -139 12 -185 9 -109 34 -137 82
-92 21 20 22 29 21 163 0 78 -4 165 -7 192 -6 44 -10 50 -32 52 -14 2 -38 -4
-54 -13z"/>
<path d="M3055 2702 c-30 -6 -45 -22 -45 -48 0 -17 6 -23 28 -26 25 -3 27 -6
28 -53 3 -90 4 -96 14 -90 6 3 10 35 10 71 0 60 2 64 23 64 31 0 98 25 98 36
0 5 -8 11 -18 13 -10 1 -25 9 -33 16 -17 14 -75 24 -105 17z"/>
<path d="M2401 1254 c-44 -22 -100 -85 -112 -125 -7 -21 -16 -39 -21 -39 -17
0 -20 30 -5 59 l14 29 -36 6 c-19 3 -40 1 -46 -5 -17 -17 -10 -275 10 -344 10
-33 23 -63 29 -67 29 -20 60 -7 107 45 55 59 60 74 24 83 -14 3 -25 13 -25 21
0 11 9 14 35 11 33 -4 35 -2 35 25 0 15 5 47 10 70 6 23 10 87 8 142 l-3 101
-24 -12z"/>
<path d="M3271 1765 c-1 -24 3 -46 9 -50 6 -4 10 10 10 39 0 58 -16 68 -19 11z"/>
<path d="M3090 1811 c0 -6 5 -13 10 -16 6 -3 10 1 10 9 0 9 -4 16 -10 16 -5 0
-10 -4 -10 -9z"/>
<path d="M3590 1805 c0 -8 4 -15 10 -15 5 0 7 7 4 15 -4 8 -8 15 -10 15 -2 0
-4 -7 -4 -15z"/>
<path d="M3821 1765 c-1 -24 3 -46 9 -50 6 -4 10 10 10 39 0 58 -16 68 -19 11z"/>
<path d="M1782 1200 c-23 -17 -42 -37 -42 -45 0 -19 4 -19 40 0 28 15 70 75
52 75 -5 0 -28 -14 -50 -30z"/>
<path d="M1771 1104 l-34 -15 6 -72 c4 -40 9 -121 13 -180 5 -82 11 -114 25
-130 17 -21 19 -21 46 -7 20 12 30 26 35 55 11 61 8 201 -6 285 -13 84 -23 91
-85 64z"/>
<path d="M1287 1047 l-37 -32 0 -177 0 -177 48 -13 47 -14 8 71 c5 38 17 100
28 137 10 36 19 74 19 84 0 20 -61 154 -70 154 -3 -1 -22 -15 -43 -33z"/>
</g>
</svg>
